<svg xmlns="http://www.w3.org/2000/svg" width="64" height="32" viewBox="0 0 64 32" fill="none" class="injected-svg" data-src="/static/media/omantel_logo.fa057f75.svg" xmlns:xlink="http://www.w3.org/1999/xlink">
<g clip-path="url(#clip0_1751_1252-5)">
<path d="M11.8175 15.9418C11.8286 19.095 9.22003 21.6838 5.93331 21.6956C2.64624 21.7074 0.0189481 19.1366 0.00784779 15.9838C-0.00325248 12.8115 2.60531 10.2415 5.89238 10.2304C9.1791 10.2186 11.806 12.7696 11.8175 15.9418ZM2.66428 15.9744C2.67087 17.8091 4.10974 19.3517 5.92499 19.3451C7.74023 19.3385 9.168 17.7859 9.16141 15.9512C9.15482 14.0784 7.71595 12.5739 5.90105 12.5805C4.08581 12.5871 2.65769 14.1016 2.66428 15.9744Z" fill="#2D13EA"></path>
<path d="M20.1317 17.243L20.147 21.4309L17.586 21.4399L17.5693 16.7581C17.5679 16.3376 17.45 15.4781 16.5328 15.4815C15.463 15.4853 15.3905 16.6894 15.3923 17.1098L15.4079 21.4476L12.8285 21.4566L12.7993 13.3544L15.3791 13.3454L15.3815 14.0527C16.1044 13.1519 17.289 13.1283 17.4038 13.1279C18.5121 13.1241 19.1639 13.6951 19.5483 14.3434C20.3274 13.1175 21.7607 13.1123 21.8752 13.112C24.4359 13.1029 24.8833 15.3563 24.8865 16.2544L24.9049 21.4139L22.3438 21.4229L22.3272 16.7414C22.3258 16.321 22.2078 15.4614 21.291 15.4645C20.6489 15.467 20.3596 16.0251 20.2309 16.4715C20.1588 16.7216 20.1307 16.9825 20.1314 17.243H20.1317Z" fill="#2D13EA"></path>
<path d="M32.2407 13.2826L34.8205 13.2733L34.8493 21.3758L32.2695 21.3848L32.2671 20.6778C31.6392 21.3872 30.78 21.6009 29.8816 21.6037C27.6074 21.6117 25.7852 19.7073 25.7769 17.3571C25.7686 15.0063 27.5772 13.0891 29.851 13.0811C30.7491 13.0776 31.6097 13.2851 32.2428 13.9899L32.2404 13.283L32.2407 13.2826ZM32.2553 17.3335C32.2515 16.2249 31.3888 15.4257 30.2805 15.4295C29.2103 15.4333 28.3535 16.2391 28.3574 17.3474C28.3612 18.4557 29.2242 19.2553 30.2943 19.2515C31.4026 19.2473 32.2598 18.4418 32.2556 17.3335" fill="#2D13EA"></path>
<path d="M41.4484 16.8583C41.447 16.4379 41.4432 15.3868 40.182 15.391C39.0355 15.3951 38.7722 16.5999 38.7736 17.0206L38.7892 21.3584L36.2095 21.3674L36.1807 13.2653L38.7604 13.2563L38.7629 13.9636C39.4858 13.0627 40.8233 13.0388 40.9378 13.0384C43.8617 13.0277 44.006 16.0466 44.0067 16.1805L44.0247 21.34L41.4644 21.3491L41.4484 16.8583Z" fill="#2D13EA"></path>
<path d="M44.888 13.2219H50.8499L50.8583 15.562L48.9282 15.5689L48.9372 18.1102C48.9372 18.1102 48.9219 19.1803 50.0493 19.1762H50.8513L50.8589 21.3196C50.8589 21.3196 49.9994 21.3168 49.273 21.3196C48.8526 21.3209 46.3876 21.3296 46.3765 18.1386L46.3675 15.5776L44.896 15.5828L44.8877 13.2216L44.888 13.2219Z" fill="#2D13EA"></path>
<path d="M59.985 18.2403L54.3291 18.2604C54.6367 18.813 55.2112 19.155 55.88 19.1526C55.88 19.1526 56.9692 19.1488 57.8274 18.6295L59.4768 20.3438C59.4768 20.3438 57.9904 21.4958 55.9268 21.5031C53.4806 21.5121 51.5054 19.6077 51.4971 17.2576C51.4888 14.9071 53.4504 12.9892 55.8963 12.9805C58.0175 12.9729 59.9718 14.5141 59.9819 17.3041L59.9853 18.2406L59.985 18.2403ZM55.8664 15.331C55.121 15.3334 54.4917 15.6796 54.2271 16.5218L57.4947 16.51C57.2436 15.6699 56.6115 15.3286 55.8664 15.331Z" fill="#2D13EA"></path>
<path d="M63.9513 9.81142L61.3906 9.8208L61.4326 21.2675L63.9933 21.2581L63.9513 9.81142Z" fill="#2D13EA"></path>
<path d="M47.8737 9L45.7397 11.134L47.8737 13.2679L50.0077 11.134L47.8737 9Z" fill="#FF7800"></path>
</g>
<defs>
<clipPath id="clip0_1751_1252-5">
<rect width="63.984" height="12.6956" fill="white" transform="translate(0.0078125 9)"></rect>
</clipPath>
</defs>
</svg>